<svg width="267" height="120" viewBox="0 0 267 120" fill="none" xmlns="http://www.w3.org/2000/svg">
<path d="M128.8 54.8C128.33 55.9093 127.733 57.5093 127.008 59.6C125.13 65.104 123.701 71.184 122.72 77.84C122.592 78.9493 122.464 80.144 122.336 81.424C122.208 82.704 122.144 83.792 122.144 84.688C122.144 85.2 122.293 85.6907 122.592 86.16C122.933 86.6293 123.104 86.928 123.104 87.056C123.104 87.312 122.826 87.7813 122.272 88.464C121.717 89.104 121.098 89.7013 120.416 90.256C119.733 90.8107 119.178 91.088 118.752 91.088C117.898 91.088 117.472 90.7253 117.472 90C117.472 89.0613 118.005 85.8613 119.072 80.4C120.138 74.896 121.034 70.672 121.76 67.728C120.736 68.88 119.818 69.776 119.008 70.416C118.197 71.056 117.194 71.376 116 71.376C114.293 71.376 112.565 70.032 110.816 67.344C109.066 64.6133 107.317 61.3493 105.568 57.552L104.928 56.272C104.33 55.0347 103.733 53.968 103.136 53.072C102.538 52.176 102.24 51.664 102.24 51.536C102.24 51.3227 102.389 51.1733 102.688 51.088C103.029 50.96 103.392 50.896 103.776 50.896C105.184 50.896 106.442 52.24 107.552 54.928C109.088 58.5973 110.602 61.776 112.096 64.464C113.632 67.1093 115.21 68.432 116.832 68.432C117.898 68.432 118.837 68.0693 119.648 67.344C120.458 66.6187 121.12 65.7653 121.632 64.784C122.101 63.888 122.656 62.608 123.296 60.944C123.978 59.28 124.49 57.9147 124.832 56.848C126.197 52.752 126.944 50.384 127.072 49.744C127.285 48.848 127.477 48.2293 127.648 47.888C127.818 47.504 128.096 47.312 128.48 47.312C128.949 47.312 129.397 47.4827 129.824 47.824C130.25 48.1227 130.464 48.4853 130.464 48.912C130.464 49.6373 130.336 50.4053 130.08 51.216C129.824 52.0267 129.397 53.2213 128.8 54.8ZM160.373 74.64C160.373 75.408 159.797 77.0933 158.645 79.696C157.535 82.2987 155.829 84.7093 153.525 86.928C151.263 89.1467 148.469 90.256 145.141 90.256C142.41 90.256 140.127 89.4027 138.293 87.696C136.458 85.9893 135.541 83.3653 135.541 79.824C135.541 76.496 136.309 73.2107 137.845 69.968C139.381 66.6827 141.386 64.016 143.861 61.968C146.335 59.8773 148.895 58.832 151.541 58.832C153.119 58.832 154.442 59.1947 155.509 59.92C156.618 60.6027 157.173 61.6053 157.173 62.928C157.173 64.4213 156.319 65.872 154.613 67.28C152.949 68.688 150.773 69.9253 148.085 70.992C145.397 72.0587 142.623 72.8267 139.765 73.296C139.253 75.2587 138.997 77.1787 138.997 79.056C138.997 81.5307 139.573 83.4507 140.725 84.816C141.919 86.1813 143.605 86.864 145.781 86.864C149.066 86.864 151.733 85.6907 153.781 83.344C155.829 80.9973 157.535 78.352 158.901 75.408C158.986 75.2373 159.135 74.9173 159.349 74.448C159.562 73.936 159.754 73.68 159.925 73.68C160.223 73.68 160.373 74 160.373 74.64ZM150.773 61.456C149.151 61.456 147.594 61.9893 146.101 63.056C144.607 64.1227 143.349 65.4027 142.325 66.896C141.343 68.3893 140.703 69.712 140.405 70.864C142.367 70.6507 144.437 70.096 146.613 69.2C148.789 68.304 150.602 67.3227 152.053 66.256C153.546 65.1893 154.293 64.3147 154.293 63.632C154.293 62.9493 153.93 62.416 153.205 62.032C152.522 61.648 151.711 61.456 150.773 61.456ZM185.196 65.104C184.898 65.104 184.599 64.976 184.3 64.72C184.044 64.464 183.746 64.1013 183.404 63.632C183.106 63.2053 182.7 62.8427 182.188 62.544C181.719 62.2453 181.228 62.096 180.716 62.096C179.479 62.096 177.815 63.7387 175.724 67.024C173.634 70.2667 171.586 74.3627 169.58 79.312C169.623 80.2933 169.687 81.5307 169.772 83.024C169.9 84.5173 169.986 85.6267 170.028 86.352L170.22 88.912C170.22 89.5093 170.092 90.0213 169.836 90.448C169.58 90.9173 169.111 91.152 168.428 91.152C167.703 91.152 167.234 90.192 167.02 88.272C166.807 86.3093 166.679 83.472 166.636 79.76C166.594 78.8213 166.551 77.4773 166.508 75.728C166.508 73.9787 166.466 71.888 166.38 69.456C166.252 65.7867 166.188 63.1627 166.188 61.584C166.188 60.6027 166.786 60.112 167.98 60.112C168.706 60.112 169.132 60.432 169.26 61.072C169.431 61.6693 169.516 62.8427 169.516 64.592V74.768C170.796 71.4827 172.183 68.6453 173.676 66.256C175.17 63.8667 176.62 62.0533 178.028 60.816C179.479 59.536 180.759 58.896 181.868 58.896C182.807 58.896 183.703 59.1093 184.556 59.536C185.41 59.9627 186.092 60.5173 186.604 61.2C187.116 61.84 187.372 62.4587 187.372 63.056C187.372 63.44 187.095 63.888 186.54 64.4C186.028 64.8693 185.58 65.104 185.196 65.104ZM203.952 88.464C202.075 89.872 200.667 90.576 199.728 90.576C199.259 90.576 198.875 90.4053 198.576 90.064C198.278 89.7227 198.128 89.3173 198.128 88.848C198.128 88.3787 198.32 87.9093 198.704 87.44C199.131 86.9707 199.75 86.5653 200.56 86.224C203.504 84.944 206.192 83.1093 208.624 80.72C211.056 78.288 212.955 75.728 214.32 73.04C215.686 70.352 216.368 67.984 216.368 65.936C216.368 65.1253 216.176 64.528 215.792 64.144C215.451 63.7173 214.875 63.504 214.064 63.504C212.272 63.504 210.438 64.2293 208.56 65.68C206.683 67.1307 204.934 69.0293 203.312 71.376C202.075 73.168 200.88 75.3227 199.728 77.84C198.576 80.3573 197.702 83.024 197.104 85.84C196.763 87.3333 196.038 88.08 194.928 88.08C194.63 88.08 194.31 87.824 193.968 87.312C193.627 86.7573 193.456 86.2667 193.456 85.84C193.456 80.8907 193.286 73.616 192.944 64.016C192.603 54.416 192.368 48.9333 192.24 47.568C192.24 47.312 192.219 47.0773 192.176 46.864C192.134 46.608 192.091 46.3733 192.048 46.16C192.006 45.904 191.963 45.648 191.92 45.392C191.878 45.0933 191.856 44.816 191.856 44.56C191.856 43.5787 192.304 43.088 193.2 43.088C193.926 43.088 194.502 43.5573 194.928 44.496C195.398 45.392 195.632 46.416 195.632 47.568V50.96C195.632 61.1147 195.782 68.9227 196.08 74.384C196.251 77.072 196.422 78.5653 196.592 78.864C197.062 77.456 197.787 75.8773 198.768 74.128C199.792 72.3787 200.859 70.7573 201.968 69.264C203.974 66.5333 206.15 64.3573 208.496 62.736C210.843 61.072 212.976 60.24 214.896 60.24C216.219 60.24 217.286 60.6667 218.096 61.52C218.95 62.3733 219.376 63.6107 219.376 65.232C219.376 68.8587 217.926 72.8267 215.024 77.136C212.123 81.4027 208.432 85.1787 203.952 88.464ZM231.46 92.176C229.626 92.176 228.388 92.0053 227.748 91.664C227.108 91.3227 226.788 90.8533 226.788 90.256C226.788 89.872 227.279 89.2107 228.26 88.272C229.242 87.2907 229.903 86.8 230.244 86.8C230.756 86.8 231.012 86.9067 231.012 87.12C231.012 87.2907 230.906 87.4613 230.692 87.632C230.479 87.8027 230.372 87.952 230.372 88.08C230.372 88.2507 230.628 88.4213 231.14 88.592C231.695 88.7627 232.356 88.848 233.124 88.848C234.916 88.848 236.708 88.528 238.5 87.888C240.335 87.2053 241.828 86.3307 242.98 85.264C244.132 84.1973 244.708 83.0667 244.708 81.872C244.708 80.72 244.346 79.8027 243.62 79.12C242.895 78.4373 241.978 77.9467 240.868 77.648C239.802 77.3067 237.988 76.8373 235.428 76.24C232.612 75.6 230.415 75.0453 228.836 74.576C227.3 74.064 226.063 73.4453 225.124 72.72C224.186 71.952 223.716 70.992 223.716 69.84C223.716 67.792 224.719 65.9147 226.724 64.208C228.73 62.5013 231.034 61.1573 233.636 60.176C236.239 59.1947 238.244 58.704 239.652 58.704C241.103 58.704 241.828 59.1307 241.828 59.984C241.828 60.496 241.658 61.072 241.316 61.712C240.975 62.3093 240.463 62.608 239.78 62.608C239.524 62.608 239.247 62.5227 238.948 62.352C238.65 62.1387 238.351 62.032 238.052 62.032C237.199 62.032 235.855 62.3093 234.02 62.864C232.186 63.4187 230.522 64.2507 229.028 65.36C227.535 66.4693 226.788 67.8133 226.788 69.392C226.788 70.416 227.364 71.184 228.516 71.696C229.711 72.1653 231.908 72.7627 235.108 73.488C235.492 73.616 235.876 73.7227 236.26 73.808C236.644 73.8507 236.986 73.9147 237.284 74C240.57 74.768 243.087 75.6427 244.836 76.624C246.586 77.6053 247.46 79.0773 247.46 81.04C247.46 82.9173 246.692 84.7307 245.156 86.48C243.663 88.1867 241.679 89.552 239.204 90.576C236.73 91.6427 234.148 92.176 231.46 92.176Z" fill="white"/>
<path d="M35.85 53.2563C35.85 53.2563 28.4063 62.4688 28.7625 72.6251C29.1188 82.7813 34.9063 96.8376 55.3375 97.3063C75.7688 97.7813 83.5875 80.2438 80.7313 68.0188C77.8313 55.6001 71.5188 51.6001 71.5188 51.6001L35.85 53.2563V53.2563Z" fill="#865C52"/>
<path d="M35.3625 53.9374C35.3625 53.9374 35.4125 52.8812 35.8187 51.6C36.1875 50.425 36.8812 49.2437 36.8812 49.2437C36.8812 49.2437 46.6375 55.8062 47.0187 55.9999C47.4 56.1937 58.5562 58.3687 59.3875 57.9874C60.2187 57.5999 69.3875 52.6687 70.0937 52.4125C70.8 52.1562 71.7625 48.8875 71.7625 48.8875C71.7625 48.8875 72.8062 50.175 73.2875 51.9437C73.5687 52.9687 73.5562 54.1687 73.5562 54.1687C73.5562 54.1687 73.9687 57.8187 66.825 62.2875C59.6437 66.775 46.8625 65.7749 40.675 61.2624C35.9312 57.7937 35.3625 53.9374 35.3625 53.9374Z" fill="#B0B0B0"/>
<path d="M54.5813 40.7437C45.225 40.6375 36.7125 44.6687 36.5875 50.8875C36.475 56.2063 46.1125 60.7563 54.0063 60.8063C64.5813 60.8688 72.2063 55.825 72.2063 51C72.2063 46.1313 65.925 40.875 54.5813 40.7437V40.7437Z" fill="#E0E0E0"/>
<path d="M64.2875 46.325C64.2875 46.325 61.6563 43.2937 54.0688 43.2375C46.9375 43.1812 42.2875 45.7625 42.3938 49.6375C42.5063 53.9625 48.1063 54.5562 48.1063 54.5562L62.55 52.3375L64.2875 46.325V46.325Z" fill="#858585"/>
<path d="M61.9312 49.5251C61.9312 49.5251 59.8 47.675 53.7875 47.675C47.775 47.675 44.4687 49.6938 44.1875 51.7188C44.025 52.8875 44.3562 53.1813 44.3562 53.1813C44.3562 53.1813 47.725 55.7626 54.6875 55.6501C61.65 55.5376 62.6625 54.3001 62.6625 54.3001L61.9312 49.5251V49.5251Z" fill="#96A520"/>
<path d="M58.45 56.0374C58.45 56.0374 67.825 37.9562 68.6688 37.0624C69.5125 36.1687 83.6563 21.1187 83.6563 21.1187L85.7875 23.0249L81.575 27.6874C81.575 27.6874 71.1313 39.2562 70.9625 39.7562C70.7938 40.2624 65.2938 51.4874 65.0688 51.8812C64.8438 52.2749 63.8313 56.2062 63.6063 56.2624C63.3875 56.3187 58.45 56.0374 58.45 56.0374V56.0374Z" fill="#E0E0E0"/>
<path d="M62.325 54.5189C62.325 54.5189 70.075 39.4751 70.525 38.7438C70.975 38.0126 85.4 22.6626 85.4 22.6626L86.4625 23.6063C86.4625 23.6063 72.5125 39.1251 72.1 39.6938C71.5125 40.5001 65.0375 53.1876 65.0375 53.1876C65.0375 53.1876 64.4 53.6439 63.9188 53.8939C63.0438 54.3439 62.325 54.5189 62.325 54.5189V54.5189Z" fill="#B0B0B0"/>
<path d="M74 30.3813C73.7188 30.3188 71.7 32.4 71.8125 32.7375C71.925 33.075 75.0625 36.0375 75.5688 36.2063C76.075 36.375 77.7563 34.2438 77.8125 34.0188C77.8688 33.7938 74.5063 30.4938 74 30.3813V30.3813Z" fill="#B0B0B0"/>
<path d="M73.8875 31.3313C73.2062 31.3313 72.95 31.9188 72.9312 32.5125C72.9125 33.1875 73.2125 33.6938 73.8875 33.6938C74.5625 33.6938 74.8437 33.0188 74.8437 32.4563C74.8437 31.8938 74.5062 31.3313 73.8875 31.3313Z" fill="white"/>
<path d="M35.4437 61.1937C34.5937 61.1249 31.925 65.4187 31.7875 70.2499C31.6437 75.0812 32.8875 78.6312 33.775 78.7374C34.95 78.8812 35.625 74.9749 37.15 71.9187C38.6625 68.8874 41.1625 66.8749 41.125 65.9499C41.0875 65.0249 39.2062 64.2437 38 63.2499C36.7937 62.2624 35.9875 61.2437 35.4437 61.1937V61.1937Z" fill="#B78859"/>
</svg>
