<svg width="128" height="135" viewBox="0 0 128 135" fill="none" xmlns="http://www.w3.org/2000/svg">
<path d="M33.3599 53.2101C33.3599 53.2101 21.4499 67.9501 22.0199 84.2001C22.5899 100.45 31.8499 122.94 64.5399 123.69C97.2299 124.45 109.74 96.3901 105.17 76.8301C100.53 56.9601 90.4299 50.5601 90.4299 50.5601L33.3599 53.2101V53.2101Z" fill="#865C52"/>
<path d="M32.58 54.3C32.58 54.3 32.66 52.61 33.31 50.56C33.9 48.68 35.01 46.79 35.01 46.79C35.01 46.79 50.62 57.29 51.23 57.6C51.84 57.91 69.69 61.39 71.02 60.78C72.35 60.16 87.02 52.27 88.15 51.86C89.28 51.45 90.82 46.22 90.82 46.22C90.82 46.22 92.49 48.28 93.26 51.11C93.71 52.75 93.69 54.67 93.69 54.67C93.69 54.67 94.35 60.51 82.92 67.66C71.43 74.84 50.98 73.24 41.08 66.02C33.49 60.47 32.58 54.3 32.58 54.3Z" fill="#B0B0B0"/>
<path d="M63.33 33.19C48.36 33.02 34.74 39.47 34.54 49.42C34.36 57.93 49.78 65.2101 62.41 65.2901C79.33 65.3901 91.53 57.32 91.53 49.6C91.53 41.81 81.48 33.4 63.33 33.19V33.19Z" fill="#E0E0E0"/>
<path d="M78.86 42.1199C78.86 42.1199 74.65 37.2699 62.51 37.1799C51.1 37.0899 43.66 41.2199 43.83 47.4199C44.01 54.3399 52.97 55.2899 52.97 55.2899L76.08 51.7399L78.86 42.1199V42.1199Z" fill="#858585"/>
<path d="M75.0899 47.24C75.0899 47.24 71.6799 44.28 62.0599 44.28C52.4399 44.28 47.1499 47.51 46.6999 50.75C46.4399 52.62 46.9699 53.09 46.9699 53.09C46.9699 53.09 52.3599 57.22 63.4999 57.04C74.6399 56.86 76.26 54.88 76.26 54.88L75.0899 47.24V47.24Z" fill="#96A520"/>
<path d="M69.52 57.66C69.52 57.66 84.52 28.73 85.87 27.3C87.22 25.87 109.85 1.79004 109.85 1.79004L113.26 4.84004L106.52 12.3C106.52 12.3 89.81 30.81 89.54 31.61C89.27 32.42 80.47 50.38 80.11 51.01C79.75 51.64 78.13 57.93 77.77 58.02C77.42 58.11 69.52 57.66 69.52 57.66V57.66Z" fill="#E0E0E0"/>
<path d="M75.72 55.23C75.72 55.23 88.12 31.16 88.84 29.99C89.56 28.82 112.64 4.26001 112.64 4.26001L114.34 5.77001C114.34 5.77001 92.02 30.6 91.36 31.51C90.42 32.8 80.06 53.1 80.06 53.1C80.06 53.1 79.04 53.83 78.27 54.23C76.87 54.95 75.72 55.23 75.72 55.23V55.23Z" fill="#B0B0B0"/>
<path d="M94.3999 16.6101C93.9499 16.5101 90.7199 19.8401 90.8999 20.3801C91.0799 20.9201 96.0999 25.6601 96.9099 25.9301C97.7199 26.2001 100.41 22.7901 100.5 22.4301C100.59 22.0701 95.2099 16.7901 94.3999 16.6101V16.6101Z" fill="#B0B0B0"/>
<path d="M94.22 18.1299C93.13 18.1299 92.72 19.0699 92.69 20.0199C92.66 21.0999 93.14 21.9099 94.22 21.9099C95.3 21.9099 95.75 20.8299 95.75 19.9299C95.75 19.0299 95.21 18.1299 94.22 18.1299Z" fill="white"/>
<path d="M32.71 65.91C31.35 65.8 27.08 72.67 26.86 80.4C26.63 88.13 28.62 93.81 30.04 93.98C31.92 94.21 33 87.96 35.44 83.07C37.86 78.22 41.86 75 41.8 73.52C41.74 72.04 38.73 70.79 36.8 69.2C34.87 67.62 33.58 65.99 32.71 65.91V65.91Z" fill="#B78859"/>
</svg>
