<svg width="24" height="38" viewBox="0 0 24 38" fill="#34623F" id="leaf-img" xmlns="http://www.w3.org/2000/svg">
<path d="M20.7144 5.8933C24.684 12.4999 24.3818 20.232 19.9995 25.3117C19.2058 26.3467 18.2153 27.2598 17.0288 27.9726C13.6606 29.9965 9.39786 29.991 6.01602 27.9483C4.75638 32.2154 5.77097 35.618 5.79213 35.6826C5.99735 36.3333 5.71582 37.0227 5.15271 37.3611C5.05701 37.4186 4.95248 37.466 4.84161 37.5019C4.07647 37.7438 3.26095 37.3211 3.02156 36.5595C2.29373 34.2198 0.690133 22.0437 13.3967 14.4089C13.8556 14.1343 14.0058 13.5378 13.7326 13.0833C13.4595 12.6287 12.8624 12.4813 12.4057 12.7558C6.83165 16.105 3.87813 20.3121 2.31123 24.136C1.98543 23.5711 1.69784 22.9692 1.46892 22.3186C0.125465 18.4992 1.20296 14.1123 4.12335 11.289C5.39 10.0666 6.82649 9.24204 8.32342 8.76498C11.6432 7.70669 14.2279 4.69613 14.1713 0.94585C14.1602 0.261565 14.915 -0.170002 15.4768 0.219614C17.4806 1.60469 19.3643 3.64635 20.7144 5.8933Z" />
</svg>
