<svg width="64" height="64" viewBox="0 0 64 64" fill="none" xmlns="http://www.w3.org/2000/svg">
<path d="M49.9467 14.4267L46.5333 17.0933L32 27.8933L17.4667 16.9867L14.0533 14.32C13.2492 13.6548 12.2676 13.2401 11.2301 13.1273C10.1926 13.0146 9.14481 13.2087 8.21655 13.6856C7.28828 14.1625 6.52033 14.9012 6.00783 15.8103C5.49534 16.7194 5.26082 17.7589 5.33333 18.8V49.7067C5.33333 50.6685 5.71542 51.591 6.39555 52.2711C7.07568 52.9512 7.99814 53.3333 8.95999 53.3333H17.4667V32.7467L32 43.6533L46.5333 32.7467V53.3333H55.04C56.0018 53.3333 56.9243 52.9512 57.6044 52.2711C58.2846 51.591 58.6667 50.6685 58.6667 49.7067V18.8C58.7167 17.7679 58.4659 16.7435 57.9447 15.8513C57.4234 14.959 56.6542 14.2375 55.7306 13.7742C54.8069 13.311 53.7686 13.126 52.7418 13.2419C51.715 13.3577 50.7439 13.7693 49.9467 14.4267V14.4267Z" fill="black"/>
</svg>
