<svg width="64" height="64" viewBox="0 0 64 64" fill="none" xmlns="http://www.w3.org/2000/svg">
<path fill-rule="evenodd" clip-rule="evenodd" d="M19.9067 2.84266C23.0347 2.69866 24.0321 2.66666 32.0001 2.66666C39.9681 2.66666 40.9654 2.70133 44.0908 2.84266C47.2161 2.984 49.3494 3.48266 51.2161 4.20533C53.1707 4.944 54.9441 6.09866 56.4107 7.592C57.9041 9.056 59.0561 10.8267 59.7921 12.784C60.5174 14.6507 61.0134 16.784 61.1574 19.904C61.3014 23.0373 61.3334 24.0347 61.3334 32C61.3334 39.968 61.2987 40.9653 61.1574 44.0933C61.0161 47.2133 60.5174 49.3467 59.7921 51.2133C59.0561 53.1709 57.9022 54.9445 56.4107 56.4107C54.9441 57.904 53.1707 59.056 51.2161 59.792C49.3494 60.5173 47.2161 61.0133 44.0961 61.1573C40.9654 61.3013 39.9681 61.3333 32.0001 61.3333C24.0321 61.3333 23.0347 61.2987 19.9067 61.1573C16.7867 61.016 14.6534 60.5173 12.7867 59.792C10.8292 59.0559 9.0556 57.902 7.58941 56.4107C6.09709 54.9458 4.94225 53.173 4.20541 51.216C3.48275 49.3493 2.98675 47.216 2.84275 44.096C2.69875 40.9627 2.66675 39.9653 2.66675 32C2.66675 24.032 2.70141 23.0347 2.84275 19.9093C2.98408 16.784 3.48275 14.6507 4.20541 12.784C4.94334 10.8269 6.09906 9.05417 7.59208 7.58933C9.05619 6.09733 10.828 4.94251 12.7841 4.20533C14.6507 3.48266 16.7841 2.98666 19.9041 2.84266H19.9067ZM43.8534 8.12266C40.7601 7.98133 39.8321 7.952 32.0001 7.952C24.1681 7.952 23.2401 7.98133 20.1467 8.12266C17.2854 8.25333 15.7334 8.73066 14.6987 9.13333C13.3307 9.66666 12.3521 10.2987 11.3254 11.3253C10.3522 12.2721 9.60323 13.4248 9.13341 14.6987C8.73075 15.7333 8.25342 17.2853 8.12275 20.1467C7.98141 23.24 7.95208 24.168 7.95208 32C7.95208 39.832 7.98141 40.76 8.12275 43.8533C8.25342 46.7147 8.73075 48.2667 9.13341 49.3013C9.60275 50.5733 10.3521 51.728 11.3254 52.6747C12.2721 53.648 13.4267 54.3973 14.6987 54.8667C15.7334 55.2693 17.2854 55.7467 20.1467 55.8773C23.2401 56.0187 24.1654 56.048 32.0001 56.048C39.8347 56.048 40.7601 56.0187 43.8534 55.8773C46.7147 55.7467 48.2668 55.2693 49.3014 54.8667C50.6694 54.3333 51.6481 53.7013 52.6748 52.6747C53.6481 51.728 54.3974 50.5733 54.8668 49.3013C55.2694 48.2667 55.7467 46.7147 55.8774 43.8533C56.0187 40.76 56.0481 39.832 56.0481 32C56.0481 24.168 56.0187 23.24 55.8774 20.1467C55.7467 17.2853 55.2694 15.7333 54.8668 14.6987C54.3334 13.3307 53.7014 12.352 52.6748 11.3253C51.7279 10.3522 50.5753 9.60323 49.3014 9.13333C48.2668 8.73066 46.7147 8.25333 43.8534 8.12266ZM28.2534 41.0427C30.3458 41.9137 32.6758 42.0312 34.8452 41.3753C37.0147 40.7193 38.8891 39.3304 40.1484 37.446C41.4076 35.5615 41.9736 33.2983 41.7495 31.0429C41.5255 28.7876 40.5254 26.6799 38.9201 25.08C37.8967 24.0573 36.6593 23.2742 35.297 22.7871C33.9346 22.2999 32.4812 22.121 31.0414 22.263C29.6016 22.405 28.2112 22.8645 26.9702 23.6083C25.7293 24.3522 24.6687 25.362 23.8649 26.5649C23.061 27.7679 22.5339 29.1341 22.3215 30.5652C22.109 31.9964 22.2165 33.4568 22.6362 34.8414C23.0559 36.226 23.7774 37.5003 24.7487 38.5726C25.72 39.6449 26.9169 40.4885 28.2534 41.0427ZM21.3387 21.3387C22.7388 19.9386 24.4009 18.828 26.2302 18.0703C28.0595 17.3126 30.0201 16.9226 32.0001 16.9226C33.9801 16.9226 35.9407 17.3126 37.77 18.0703C39.5992 18.828 41.2613 19.9386 42.6614 21.3387C44.0615 22.7387 45.1721 24.4009 45.9298 26.2301C46.6875 28.0594 47.0775 30.02 47.0775 32C47.0775 33.98 46.6875 35.9406 45.9298 37.7699C45.1721 39.5991 44.0615 41.2613 42.6614 42.6613C39.8339 45.4889 35.9989 47.0774 32.0001 47.0774C28.0013 47.0774 24.1663 45.4889 21.3387 42.6613C18.5112 39.8338 16.9227 35.9988 16.9227 32C16.9227 28.0012 18.5112 24.1662 21.3387 21.3387ZM50.4214 19.168C50.7684 18.8407 51.0461 18.4471 51.2382 18.0106C51.4303 17.574 51.5329 17.1034 51.5399 16.6265C51.5468 16.1496 51.458 15.6761 51.2787 15.2342C51.0994 14.7922 50.8332 14.3907 50.496 14.0534C50.1587 13.7162 49.7572 13.45 49.3153 13.2707C48.8733 13.0914 48.3998 13.0026 47.9229 13.0096C47.446 13.0165 46.9754 13.1191 46.5388 13.3112C46.1023 13.5033 45.7087 13.7811 45.3814 14.128C44.7449 14.8027 44.3964 15.699 44.41 16.6265C44.4235 17.554 44.7979 18.4397 45.4538 19.0956C46.1097 19.7515 46.9954 20.1259 47.9229 20.1395C48.8504 20.153 49.7467 19.8045 50.4214 19.168Z" fill="black"/>
</svg>
