<svg width="64" height="64" viewBox="0 0 64 64" fill="none" xmlns="http://www.w3.org/2000/svg">
<path d="M31.9999 45.3333L34.6666 40V26.288C39.2559 25.096 42.6666 20.9547 42.6666 16C42.6666 10.1173 37.8826 5.33333 31.9999 5.33333C26.1173 5.33333 21.3333 10.1173 21.3333 16C21.3333 20.9547 24.7439 25.096 29.3333 26.288V40L31.9999 45.3333ZM26.6666 16C26.6666 13.0587 29.0586 10.6667 31.9999 10.6667C34.9413 10.6667 37.3333 13.0587 37.3333 16C37.3333 18.9413 34.9413 21.3333 31.9999 21.3333C29.0586 21.3333 26.6666 18.9413 26.6666 16Z" fill="black"/>
<path d="M43.3787 28.168L41.9574 33.3093C48.8667 35.2187 53.3334 38.8907 53.3334 42.6667C53.3334 47.712 44.5734 53.3333 32 53.3333C19.4267 53.3333 10.6667 47.712 10.6667 42.6667C10.6667 38.8907 15.1334 35.2187 22.0454 33.3067L20.624 28.1653C11.192 30.7733 5.33337 36.328 5.33337 42.6667C5.33337 51.6373 17.048 58.6667 32 58.6667C46.952 58.6667 58.6667 51.6373 58.6667 42.6667C58.6667 36.328 52.808 30.7733 43.3787 28.168Z" fill="black"/>
</svg>
