<svg width="64" height="64" viewBox="0 0 64 64" fill="none" xmlns="http://www.w3.org/2000/svg">
<path d="M48 26H44C43.9984 24.4092 43.3658 22.884 42.2409 21.7591C41.116 20.6342 39.5908 20.0016 38 20V16C40.6512 16.0032 43.1929 17.0578 45.0676 18.9324C46.9422 20.8071 47.9968 23.3488 48 26Z" fill="black"/>
<path d="M56 26H52C51.9958 22.2883 50.5194 18.7298 47.8949 16.1052C45.2703 13.4806 41.7118 12.0042 38 12V8C42.7723 8.0053 47.3476 9.90342 50.7221 13.2779C54.0966 16.6524 55.9947 21.2277 56 26ZM40.666 42.964L45.146 38.484C45.7457 37.8842 46.5082 37.4735 47.339 37.3029C48.1699 37.1322 49.0325 37.2091 49.82 37.524L55.276 39.708C56.0802 40.0298 56.7695 40.5851 57.255 41.3023C57.7406 42.0196 58.0001 42.8659 58 43.732V53.654C58.0014 54.2437 57.8825 54.8275 57.6504 55.3697C57.4184 55.9118 57.0781 56.4009 56.6505 56.807C56.2229 57.2131 55.7169 57.5277 55.1635 57.7314C54.6101 57.9352 54.0209 58.0238 53.432 57.992C15.188 55.612 7.46404 23.22 6.03004 10.816C5.96058 10.2096 6.0203 9.59535 6.20527 9.01368C6.39023 8.432 6.69624 7.89608 7.10318 7.44116C7.51012 6.98623 8.00876 6.62261 8.56631 6.37422C9.12385 6.12583 9.72767 5.9983 10.338 6H20.084C20.9502 5.99997 21.7965 6.25946 22.5137 6.745C23.231 7.23054 23.7863 7.91984 24.108 8.724L26.29 14.18C26.6049 14.9676 26.6818 15.8302 26.5112 16.661C26.3405 17.4918 25.9299 18.2543 25.33 18.854L20.85 23.334C20.85 23.334 23.334 40.798 40.666 42.964Z" fill="black"/>
</svg>
