<svg width="64" height="64" viewBox="0 0 64 64" fill="none" xmlns="http://www.w3.org/2000/svg">
<path d="M63.0481 13.1653C60.8214 14.152 58.4294 14.8187 55.9148 15.12C58.5094 13.5674 60.4506 11.1239 61.3761 8.24533C58.9384 9.69331 56.2704 10.7125 53.4881 11.2587C51.6171 9.26097 49.1389 7.93687 46.4383 7.49193C43.7377 7.04699 40.9657 7.50611 38.5527 8.79801C36.1398 10.0899 34.2208 12.1423 33.0939 14.6365C31.9669 17.1308 31.6949 19.9273 32.3201 22.592C27.3806 22.344 22.5485 21.0601 18.1372 18.8237C13.726 16.5874 9.83436 13.4484 6.71478 9.61067C5.64811 11.4507 5.03478 13.584 5.03478 15.856C5.03359 17.9013 5.53727 19.9153 6.50112 21.7193C7.46498 23.5233 8.85921 25.0614 10.5601 26.1973C8.58752 26.1346 6.65844 25.6016 4.93345 24.6427V24.8027C4.93325 27.6713 5.92553 30.4517 7.74193 32.672C9.55833 34.8923 12.087 36.4158 14.8988 36.984C13.0689 37.4792 11.1503 37.5522 9.28811 37.1973C10.0814 39.6656 11.6268 41.8241 13.7078 43.3705C15.7888 44.9169 18.3012 45.7738 20.8934 45.8213C16.493 49.2758 11.0585 51.1496 5.46411 51.1413C4.47313 51.1416 3.48298 51.0837 2.49878 50.968C8.17738 54.6191 14.7877 56.5569 21.5388 56.5493C44.3921 56.5493 56.8854 37.6213 56.8854 21.2053C56.8854 20.672 56.8721 20.1333 56.8481 19.6C59.2782 17.8426 61.3759 15.6664 63.0428 13.1733L63.0481 13.1653Z" fill="black"/>
</svg>
